<svg width="167" height="250" viewBox="0 0 167 250" fill="none" xmlns="http://www.w3.org/2000/svg">
<rect width="167" height="152.707" rx="33.4" fill="#2E1340"/>
<path d="M74.4912 22.6071C30.7716 29.4258 21.1787 64.8895 21.8472 81.769C22.2919 86.9274 23.6323 91.7046 25.5567 96.0688L31.3917 94.4382C31.7121 94.3487 32.0432 94.3033 32.3759 94.3033V94.3033L42.2733 99.9589C42.6937 100.199 43.1276 100.408 43.5789 100.583C48.4707 102.487 57.5364 105.835 59.45 105.835C88.329 109.445 106.579 100.828 112.094 96.0688C119.949 89.6309 133.854 72.0424 126.634 53.1908C119.414 34.3392 93.5433 29.6264 81.5104 29.6264C73.4884 29.125 54.9377 32.6346 44.9102 50.684C35.1331 68.2828 52.5251 80.0028 63.1594 83.9852C63.6944 84.1856 64.2527 84.3259 64.8172 84.4133C83.5261 87.3099 93.7528 81.5521 96.5515 78.2594C105.376 68.232 100.563 59.7087 97.0529 56.7004C87.4266 48.6785 79.3378 52.3552 76.4967 55.1963C90.038 53.7955 92.3039 61.2824 92.1608 66.456C92.1405 67.1906 91.992 67.9165 91.7141 68.5967C89.881 73.0833 85.8894 76.3208 78.5021 76.7553C58.0462 77.9586 54.9377 64.221 55.9404 57.2018C57.2774 52.1881 64.2632 41.8598 81.5104 40.6565C98.0505 39.5026 108.842 51.7822 112.647 58.8344C112.959 59.413 113.189 60.0222 113.316 60.6673C114.65 67.4396 113.1 81.1468 97.0529 88.7882C80.2068 96.8102 63.2939 92.7992 56.9432 89.791C50.9267 87.7855 37.891 79.9641 33.8801 64.7224C29.8691 49.4807 44.2417 36.3113 51.9294 31.6318C54.102 30.2948 61.1547 27.0192 71.9843 24.6126C82.8139 22.2061 97.5543 25.2811 103.571 27.1195C112.763 30.6291 130.57 40.9885 133.378 55.428C135.923 68.5177 134.767 77.3244 133.159 80.8484C132.868 81.4853 132.52 82.0984 132.229 82.7352C125.24 98.0381 105.881 106.484 96.0205 109.098C95.3745 109.269 94.7501 109.496 94.1227 109.727C87.6806 112.091 74.5195 111.485 68.4747 110.849C55.2385 110.046 38.8938 99.4842 32.3759 94.3033V94.3033C32.0432 94.3033 31.7121 94.3487 31.3917 94.4382L25.5567 96.0688C32.3112 111.386 46.2611 121.616 53.9349 125.388C98.0556 143.839 132.443 110.587 137.664 103.328C142.885 96.0688 145.185 85.3512 145.185 73.7471C145.185 63.286 138.394 51.146 133.995 44.6798C133.12 43.3942 132.106 42.2148 130.972 41.1501C117.528 28.5187 98.022 18.9372 74.4912 22.6071Z" fill="#F0F0F0"/>
<path d="M23.2169 229.348C19.3235 229.348 15.8569 228.681 12.8169 227.348C9.77688 226.014 7.37688 224.201 5.61688 221.908C3.85688 219.561 2.87021 216.948 2.65688 214.068H16.1769C16.3369 215.614 17.0569 216.868 18.3369 217.828C19.6169 218.788 21.1902 219.268 23.0569 219.268C24.7635 219.268 26.0702 218.948 26.9769 218.308C27.9369 217.614 28.4169 216.734 28.4169 215.668C28.4169 214.388 27.7502 213.454 26.4169 212.868C25.0835 212.228 22.9235 211.534 19.9369 210.788C16.7369 210.041 14.0702 209.268 11.9369 208.468C9.80354 207.614 7.96354 206.308 6.41688 204.548C4.87021 202.734 4.09688 200.308 4.09688 197.268C4.09688 194.708 4.79021 192.388 6.17688 190.308C7.61688 188.174 9.69688 186.494 12.4169 185.268C15.1902 184.041 18.4702 183.428 22.2569 183.428C27.8569 183.428 32.2569 184.814 35.4569 187.588C38.7102 190.361 40.5769 194.041 41.0569 198.628H28.4169C28.2035 197.081 27.5102 195.854 26.3369 194.948C25.2169 194.041 23.7235 193.588 21.8569 193.588C20.2569 193.588 19.0302 193.908 18.1769 194.548C17.3235 195.134 16.8969 195.961 16.8969 197.028C16.8969 198.308 17.5635 199.268 18.8969 199.908C20.2835 200.548 22.4169 201.188 25.2969 201.828C28.6035 202.681 31.2969 203.534 33.3769 204.388C35.4569 205.188 37.2702 206.521 38.8169 208.388C40.4169 210.201 41.2435 212.654 41.2969 215.748C41.2969 218.361 40.5502 220.708 39.0569 222.788C37.6169 224.814 35.5102 226.414 32.7369 227.588C30.0169 228.761 26.8435 229.348 23.2169 229.348ZM60.1463 190.388C61.4796 188.308 63.3196 186.628 65.6663 185.348C68.0129 184.068 70.7596 183.428 73.9063 183.428C77.5863 183.428 80.9196 184.361 83.9063 186.228C86.8929 188.094 89.2396 190.761 90.9463 194.228C92.7063 197.694 93.5863 201.721 93.5863 206.308C93.5863 210.894 92.7063 214.948 90.9463 218.468C89.2396 221.934 86.8929 224.628 83.9063 226.548C80.9196 228.414 77.5863 229.348 73.9063 229.348C70.8129 229.348 68.0663 228.708 65.6663 227.428C63.3196 226.148 61.4796 224.494 60.1463 222.468V249.988H46.4663V184.068H60.1463V190.388ZM79.6663 206.308C79.6663 202.894 78.7063 200.228 76.7863 198.308C74.9196 196.334 72.5996 195.348 69.8263 195.348C67.1063 195.348 64.7863 196.334 62.8663 198.308C60.9996 200.281 60.0663 202.974 60.0663 206.388C60.0663 209.801 60.9996 212.494 62.8663 214.468C64.7863 216.441 67.1063 217.428 69.8263 217.428C72.5463 217.428 74.8663 216.441 76.7863 214.468C78.7063 212.441 79.6663 209.721 79.6663 206.308ZM104.443 179.428C102.043 179.428 100.07 178.734 98.5231 177.348C97.0298 175.908 96.2831 174.148 96.2831 172.068C96.2831 169.934 97.0298 168.174 98.5231 166.788C100.07 165.348 102.043 164.628 104.443 164.628C106.79 164.628 108.71 165.348 110.203 166.788C111.75 168.174 112.523 169.934 112.523 172.068C112.523 174.148 111.75 175.908 110.203 177.348C108.71 178.734 106.79 179.428 104.443 179.428ZM111.243 184.068V228.708H97.5631V184.068H111.243ZM145.157 183.588C150.384 183.588 154.544 185.294 157.637 188.708C160.784 192.068 162.357 196.708 162.357 202.628V228.708H148.757V204.468C148.757 201.481 147.984 199.161 146.437 197.508C144.89 195.854 142.81 195.028 140.197 195.028C137.584 195.028 135.504 195.854 133.957 197.508C132.41 199.161 131.637 201.481 131.637 204.468V228.708H117.957V184.068H131.637V189.988C133.024 188.014 134.89 186.468 137.237 185.348C139.584 184.174 142.224 183.588 145.157 183.588Z" fill="#2E1340"/>
</svg>
