<svg width="138" height="45" viewBox="0 0 138 45" fill="none" xmlns="http://www.w3.org/2000/svg">
<path d="M19.317 0.290364C3.2844 2.79086 -0.233456 15.7959 0.0116914 21.9859C0.17477 23.8775 0.666301 25.6294 1.37203 27.2298L3.5118 26.6319C3.6293 26.599 3.75073 26.5824 3.87273 26.5824L7.50222 28.6564C7.6564 28.7445 7.81551 28.8209 7.981 28.8854C9.77491 29.5835 13.0994 30.8112 13.8012 30.8112C24.3915 32.135 31.084 28.9752 33.1065 27.2298C35.987 24.869 41.086 18.419 38.4384 11.5058C35.7909 4.59271 26.3037 2.86442 21.891 2.86442C18.9493 2.68056 12.1464 3.96758 8.46924 10.5865C4.88384 17.0403 11.2617 21.3382 15.1615 22.7986C15.3577 22.8721 15.5624 22.9235 15.7694 22.9556C22.6302 24.0178 26.3805 21.9063 27.4068 20.6989C30.6428 17.0217 28.8777 13.896 27.5907 12.7929C24.0606 9.85111 21.0943 11.1994 20.0524 12.2413C25.0182 11.7276 25.8492 14.4732 25.7967 16.3704C25.7892 16.6398 25.7348 16.906 25.6329 17.1554C24.9606 18.8007 23.4969 19.9879 20.7879 20.1473C13.2864 20.5885 12.1464 15.5508 12.5142 12.9767C13.0045 11.1381 15.5662 7.35061 21.891 6.90935C27.9565 6.48617 31.914 10.9893 33.3094 13.5754C33.4238 13.7876 33.508 14.011 33.5546 14.2476C34.0437 16.7311 33.4753 21.7577 27.5907 24.5599C21.413 27.5017 15.2108 26.0308 12.8819 24.9276C10.6756 24.1922 5.8952 21.324 4.42431 15.7346C2.95343 10.1453 8.22409 5.31589 11.0433 3.59986C11.84 3.10957 14.4263 1.90835 18.3977 1.02582C22.3691 0.143291 27.7746 1.27097 29.9809 1.94512C33.3517 3.23214 39.882 7.03107 40.9116 12.3262C41.845 17.1264 41.4208 20.356 40.8312 21.6483C40.7246 21.8818 40.5971 22.1067 40.4904 22.3402C37.9274 27.952 30.8282 31.0492 27.2121 32.0077C26.9752 32.0705 26.7462 32.1539 26.5162 32.2383C24.1537 33.1053 19.3274 32.8831 17.1107 32.6498C12.2568 32.3556 6.26292 28.4823 3.87273 26.5824C3.75073 26.5824 3.6293 26.599 3.5118 26.6319L1.37203 27.2298C3.849 32.847 8.9646 36.5985 11.7787 37.9817C27.9584 44.7478 40.5687 32.5539 42.4834 29.8919C44.398 27.2298 45.2413 23.2995 45.2413 19.0441C45.2413 15.2079 42.7509 10.756 41.1378 8.38474C40.817 7.91327 40.4451 7.48077 40.0295 7.09033C35.0992 2.45823 27.9461 -1.05546 19.317 0.290364Z" fill="#2E1340"/>
<path d="M65.0997 34.32C63.153 34.32 61.4197 33.9867 59.8997 33.32C58.3797 32.6533 57.1797 31.7467 56.2997 30.6C55.4197 29.4267 54.9264 28.12 54.8197 26.68H61.5797C61.6597 27.4533 62.0197 28.08 62.6597 28.56C63.2997 29.04 64.0864 29.28 65.0197 29.28C65.873 29.28 66.5264 29.12 66.9797 28.8C67.4597 28.4533 67.6997 28.0133 67.6997 27.48C67.6997 26.84 67.3664 26.3733 66.6997 26.08C66.033 25.76 64.953 25.4133 63.4597 25.04C61.8597 24.6667 60.5264 24.28 59.4597 23.88C58.393 23.4533 57.473 22.8 56.6997 21.92C55.9264 21.0133 55.5397 19.8 55.5397 18.28C55.5397 17 55.8864 15.84 56.5797 14.8C57.2997 13.7333 58.3397 12.8933 59.6997 12.28C61.0864 11.6667 62.7264 11.36 64.6197 11.36C67.4197 11.36 69.6197 12.0533 71.2197 13.44C72.8464 14.8267 73.7797 16.6667 74.0197 18.96H67.6997C67.593 18.1867 67.2464 17.5733 66.6597 17.12C66.0997 16.6667 65.353 16.44 64.4197 16.44C63.6197 16.44 63.0064 16.6 62.5797 16.92C62.153 17.2133 61.9397 17.6267 61.9397 18.16C61.9397 18.8 62.273 19.28 62.9397 19.6C63.633 19.92 64.6997 20.24 66.1397 20.56C67.793 20.9867 69.1397 21.4133 70.1797 21.84C71.2197 22.24 72.1264 22.9067 72.8997 23.84C73.6997 24.7467 74.113 25.9733 74.1397 27.52C74.1397 28.8267 73.7664 30 73.0197 31.04C72.2997 32.0533 71.2464 32.8533 69.8597 33.44C68.4997 34.0267 66.913 34.32 65.0997 34.32ZM83.5644 14.84C84.2311 13.8 85.1511 12.96 86.3244 12.32C87.4977 11.68 88.8711 11.36 90.4444 11.36C92.2844 11.36 93.9511 11.8267 95.4444 12.76C96.9377 13.6933 98.1111 15.0267 98.9644 16.76C99.8444 18.4933 100.284 20.5067 100.284 22.8C100.284 25.0933 99.8444 27.12 98.9644 28.88C98.1111 30.6133 96.9377 31.96 95.4444 32.92C93.9511 33.8533 92.2844 34.32 90.4444 34.32C88.8977 34.32 87.5244 34 86.3244 33.36C85.1511 32.72 84.2311 31.8933 83.5644 30.88V44.64H76.7244V11.68H83.5644V14.84ZM93.3244 22.8C93.3244 21.0933 92.8444 19.76 91.8844 18.8C90.9511 17.8133 89.7911 17.32 88.4044 17.32C87.0444 17.32 85.8844 17.8133 84.9244 18.8C83.9911 19.7867 83.5244 21.1333 83.5244 22.84C83.5244 24.5467 83.9911 25.8933 84.9244 26.88C85.8844 27.8667 87.0444 28.36 88.4044 28.36C89.7644 28.36 90.9244 27.8667 91.8844 26.88C92.8444 25.8667 93.3244 24.5067 93.3244 22.8ZM105.713 9.36C104.513 9.36 103.526 9.01333 102.753 8.32C102.006 7.6 101.633 6.72 101.633 5.68C101.633 4.61333 102.006 3.73333 102.753 3.04C103.526 2.32 104.513 1.96 105.713 1.96C106.886 1.96 107.846 2.32 108.593 3.04C109.366 3.73333 109.753 4.61333 109.753 5.68C109.753 6.72 109.366 7.6 108.593 8.32C107.846 9.01333 106.886 9.36 105.713 9.36ZM109.113 11.68V34H102.273V11.68H109.113ZM126.07 11.44C128.683 11.44 130.763 12.2933 132.31 14C133.883 15.68 134.67 18 134.67 20.96V34H127.87V21.88C127.87 20.3867 127.483 19.2267 126.71 18.4C125.936 17.5733 124.896 17.16 123.59 17.16C122.283 17.16 121.243 17.5733 120.47 18.4C119.696 19.2267 119.31 20.3867 119.31 21.88V34H112.47V11.68H119.31V14.64C120.003 13.6533 120.936 12.88 122.11 12.32C123.283 11.7333 124.603 11.44 126.07 11.44Z" fill="#2E1340"/>
<rect x="76" y="40" width="8" height="5" fill="#F0F0F0"/>
</svg>
