<svg width="52" height="52" viewBox="0 0 52 52" fill="none" xmlns="http://www.w3.org/2000/svg">
<rect width="52" height="52" rx="26" fill="#15693F"/>
<path d="M25.5 45H23.7273V33.3532C21.8305 35.0727 19.2955 36.1364 16.6364 36.1364C10.875 36.1364 6 31.2614 6 25.5V23.7273H17.6468C15.9273 21.8305 14.8636 19.2955 14.8636 16.6364C14.8636 10.875 19.7386 6 25.5 6H27.2727V17.6468C29.1695 15.9273 31.7045 14.8636 34.3636 14.8636C40.125 14.8636 45 19.7386 45 25.5V27.2727H33.3532C35.0727 29.1695 36.1364 31.7045 36.1364 34.3636C36.1364 40.125 31.2614 45 25.5 45ZM27.2727 27.5032V41.2241C30.2864 40.4086 32.5909 37.6077 32.5909 34.3636C32.5909 31.1195 30.2864 28.3186 27.2727 27.5032ZM9.77591 27.2727C10.5914 30.2864 13.3923 32.5909 16.6364 32.5909C19.8805 32.5909 22.6814 30.2864 23.4968 27.2727H9.77591ZM27.5032 23.7273H41.2241C40.4086 20.7136 37.59 18.4091 34.3636 18.4091C31.1373 18.4091 28.3186 20.7136 27.5032 23.7273ZM23.7273 9.77591C20.7136 10.5914 18.4091 13.41 18.4091 16.6364C18.4091 19.8627 20.7136 22.6814 23.7273 23.4968V9.77591Z" fill="#F0F0F0"/>
</svg>
