<svg width="25" height="24" viewBox="0 0 25 24" fill="none" xmlns="http://www.w3.org/2000/svg">
<mask id="mask0_1263_139" style="mask-type:alpha" maskUnits="userSpaceOnUse" x="0" y="0" width="25" height="24">
<rect x="0.5" width="24" height="24" fill="#D9D9D9"/>
</mask>
<g mask="url(#mask0_1263_139)">
<path d="M6.86016 18.2472C6.69349 18.0639 6.68516 17.8681 6.83516 17.6597C6.98516 17.4514 7.17682 17.3889 7.41016 17.4722C7.71016 17.5556 8.01432 17.6139 8.32266 17.6472C8.63099 17.6806 8.95182 17.6972 9.28516 17.6972C10.6185 17.6972 11.8393 17.4056 12.9477 16.8222C14.056 16.2389 14.9768 15.4472 15.7102 14.4472L14.2602 12.9972C14.0935 12.8306 14.0518 12.6472 14.1352 12.4472C14.2185 12.2472 14.3768 12.1472 14.6102 12.1472H20.4102C20.6935 12.1472 20.931 12.2431 21.1227 12.4347C21.3143 12.6264 21.4102 12.8639 21.4102 13.1472V18.9472C21.4102 19.1806 21.3102 19.3389 21.1102 19.4222C20.9102 19.5056 20.7268 19.4639 20.5602 19.2972L19.1102 17.8472C18.3268 18.7139 17.3935 19.4056 16.3102 19.9222C15.2268 20.4389 14.0518 20.6972 12.7852 20.6972C12.0352 20.6972 11.3143 20.6014 10.6227 20.4097C9.93099 20.2181 9.27682 19.9556 8.66016 19.6222C8.34349 19.4389 8.02266 19.2347 7.69766 19.0097C7.37266 18.7847 7.09349 18.5306 6.86016 18.2472ZM4.26016 4.09727L5.71016 5.54727C6.49349 4.66393 7.42682 3.9681 8.51016 3.45977C9.59349 2.95143 10.7685 2.69727 12.0352 2.69727C12.7852 2.69727 13.506 2.7931 14.1977 2.98477C14.8893 3.17643 15.5435 3.43893 16.1602 3.77227C16.4768 3.9556 16.7977 4.16393 17.1227 4.39727C17.4477 4.6306 17.7268 4.88893 17.9602 5.17227C18.1268 5.3556 18.1393 5.55143 17.9977 5.75977C17.856 5.9681 17.6685 6.0306 17.4352 5.94727C17.1352 5.86393 16.8268 5.80143 16.5102 5.75977C16.1935 5.7181 15.8685 5.69727 15.5352 5.69727C14.2018 5.69727 12.981 5.9931 11.8727 6.58477C10.7643 7.17643 9.84349 7.96393 9.11016 8.94727L10.5602 10.3973C10.7268 10.5639 10.7685 10.7473 10.6852 10.9473C10.6018 11.1473 10.4435 11.2473 10.2102 11.2473L4.41016 11.2473C4.12682 11.2473 3.88932 11.1514 3.69766 10.9598C3.50599 10.7681 3.41016 10.5306 3.41016 10.2473V4.44727C3.41016 4.21393 3.51015 4.0556 3.71016 3.97227C3.91016 3.88893 4.09349 3.9306 4.26016 4.09727Z" fill="#F0F0F0" stroke="#F0F0F0"/>
</g>
</svg>
