<svg width="20" height="21" viewBox="0 0 20 21" fill="none" xmlns="http://www.w3.org/2000/svg">
<path d="M4.45 17.2472C4.28333 17.0639 4.275 16.8681 4.425 16.6597C4.575 16.4514 4.76667 16.3889 5 16.4722C5.3 16.5556 5.60417 16.6139 5.9125 16.6472C6.22083 16.6806 6.54167 16.6972 6.875 16.6972C8.20833 16.6972 9.42917 16.4056 10.5375 15.8222C11.6458 15.2389 12.5667 14.4472 13.3 13.4472L11.85 11.9972C11.6833 11.8306 11.6417 11.6472 11.725 11.4472C11.8083 11.2472 11.9667 11.1472 12.2 11.1472H18C18.2833 11.1472 18.5208 11.2431 18.7125 11.4347C18.9042 11.6264 19 11.8639 19 12.1472V17.9472C19 18.1806 18.9 18.3389 18.7 18.4222C18.5 18.5056 18.3167 18.4639 18.15 18.2972L16.7 16.8472C15.9167 17.7139 14.9833 18.4056 13.9 18.9222C12.8167 19.4389 11.6417 19.6972 10.375 19.6972C9.625 19.6972 8.90417 19.6014 8.2125 19.4097C7.52083 19.2181 6.86667 18.9556 6.25 18.6222C5.93333 18.4389 5.6125 18.2347 5.2875 18.0097C4.9625 17.7847 4.68333 17.5306 4.45 17.2472ZM1.85 3.09727L3.3 4.54727C4.08333 3.66393 5.01667 2.9681 6.1 2.45977C7.18333 1.95143 8.35833 1.69727 9.625 1.69727C10.375 1.69727 11.0958 1.7931 11.7875 1.98477C12.4792 2.17643 13.1333 2.43893 13.75 2.77227C14.0667 2.9556 14.3875 3.16393 14.7125 3.39727C15.0375 3.6306 15.3167 3.88893 15.55 4.17227C15.7167 4.3556 15.7292 4.55143 15.5875 4.75977C15.4458 4.9681 15.2583 5.0306 15.025 4.94727C14.725 4.86393 14.4167 4.80143 14.1 4.75977C13.7833 4.7181 13.4583 4.69727 13.125 4.69727C11.7917 4.69727 10.5708 4.9931 9.4625 5.58477C8.35417 6.17643 7.43333 6.96393 6.7 7.94727L8.15 9.39727C8.31667 9.56393 8.35833 9.74727 8.275 9.94727C8.19167 10.1473 8.03333 10.2473 7.8 10.2473L2 10.2473C1.71667 10.2473 1.47917 10.1514 1.2875 9.95977C1.09583 9.7681 1 9.5306 1 9.24727V3.44727C1 3.21393 1.1 3.0556 1.3 2.97227C1.5 2.88893 1.68333 2.9306 1.85 3.09727Z" stroke="#7F5E95" stroke-width="1.85"/>
</svg>
