<svg width="24" height="24" viewBox="0 0 24 24" fill="none" xmlns="http://www.w3.org/2000/svg">
<mask id="mask0_79_79" style="mask-type:alpha" maskUnits="userSpaceOnUse" x="0" y="0" width="24" height="24">
<rect width="24" height="24" fill="#D9D9D9"/>
</mask>
<g mask="url(#mask0_79_79)">
<path d="M4.5 18.9423V10.096C4.5 9.80983 4.564 9.53875 4.692 9.28275C4.82017 9.02658 4.99717 8.81567 5.223 8.65L10.9155 4.3615C11.2313 4.1205 11.5923 4 11.9985 4C12.4047 4 12.7667 4.1205 13.0845 4.3615L18.777 8.65C19.0028 8.81567 19.1798 9.02658 19.308 9.28275C19.436 9.53875 19.5 9.80983 19.5 10.096V18.9423C19.5 19.3513 19.3523 19.7035 19.0568 19.999C18.7613 20.2945 18.409 20.4423 18 20.4423H14.8077C14.5516 20.4423 14.3369 20.3556 14.1637 20.1823C13.9904 20.0091 13.9038 19.7944 13.9038 19.5383V14.6538C13.9038 14.3978 13.8172 14.1831 13.644 14.0098C13.4708 13.8366 13.2562 13.75 13 13.75H11C10.7438 13.75 10.5292 13.8366 10.356 14.0098C10.1828 14.1831 10.0963 14.3978 10.0963 14.6538V19.5383C10.0963 19.7944 10.0096 20.0091 9.83625 20.1823C9.66308 20.3556 9.44842 20.4423 9.19225 20.4423H6C5.591 20.4423 5.23875 20.2945 4.94325 19.999C4.64775 19.7035 4.5 19.3513 4.5 18.9423Z" fill="#F0F0F0"/>
</g>
</svg>
