<svg width="167" height="250" viewBox="0 0 167 250" fill="none" xmlns="http://www.w3.org/2000/svg">
<rect width="167" height="152.707" rx="33.4" fill="#2E1340"/>
<path d="M74.4913 22.6072C30.7716 29.4258 21.1787 64.8895 21.8472 81.769C22.2919 86.9275 23.6323 91.7046 25.5567 96.0688L31.3917 94.4383C31.7121 94.3488 32.0433 94.3034 32.376 94.3034L42.2733 99.959C42.6937 100.199 43.1276 100.408 43.5789 100.583C48.4707 102.487 57.5364 105.835 59.45 105.835C88.3291 109.445 106.579 100.828 112.094 96.0688C119.949 89.631 133.854 72.0425 126.634 53.1909C119.414 34.3393 93.5433 29.6264 81.5104 29.6264C73.4885 29.125 54.9377 32.6346 44.9103 50.684C35.1332 68.2828 52.5252 80.0029 63.1594 83.9853C63.6944 84.1857 64.2527 84.326 64.8173 84.4134C83.5262 87.31 93.7528 81.5521 96.5516 78.2595C105.376 68.232 100.563 59.7087 97.0529 56.7005C87.4266 48.6785 79.3378 52.3553 76.4967 55.1964C90.038 53.7956 92.3039 61.2825 92.1608 66.4561C92.1405 67.1906 91.992 67.9165 91.7141 68.5968C89.881 73.0834 85.8895 76.3208 78.5022 76.7554C58.0462 77.9587 54.9377 64.2211 55.9404 57.2019C57.2774 52.1881 64.2632 41.8599 81.5104 40.6566C98.0506 39.5026 108.842 51.7823 112.647 58.8345C112.959 59.413 113.189 60.0223 113.316 60.6673C114.65 67.4397 113.1 81.1469 97.0529 88.7883C80.2068 96.8102 63.2939 92.7993 56.9432 89.791C50.9267 87.7855 37.8911 79.9641 33.8801 64.7224C29.8691 49.4807 44.2418 36.3114 51.9295 31.6319C54.1021 30.2949 61.1547 27.0193 71.9843 24.6127C82.814 22.2061 97.5543 25.2812 103.571 27.1196C112.763 30.6292 130.57 40.9885 133.378 55.428C135.923 68.5178 134.767 77.3244 133.159 80.8485C132.868 81.4853 132.52 82.0985 132.229 82.7352C125.24 98.0381 105.881 106.484 96.0206 109.098C95.3746 109.269 94.7501 109.496 94.1227 109.727C87.6806 112.091 74.5195 111.485 68.4747 110.849C55.2385 110.046 38.8938 99.4842 32.376 94.3034C32.0433 94.3034 31.7121 94.3488 31.3917 94.4383L25.5567 96.0688C32.3112 111.386 46.2611 121.616 53.935 125.388C98.0557 143.839 132.443 110.587 137.664 103.328C142.885 96.0688 145.185 85.3512 145.185 73.7471C145.185 63.2861 138.394 51.146 133.995 44.6799C133.12 43.3942 132.106 42.2148 130.972 41.1501C117.528 28.5188 98.0221 18.9372 74.4913 22.6072Z" fill="#F0F0F0"/>
<path d="M23.2169 229.347C19.3235 229.347 15.8569 228.681 12.8169 227.347C9.77688 226.014 7.37688 224.201 5.61688 221.907C3.85688 219.561 2.87021 216.947 2.65688 214.067H16.1769C16.3369 215.614 17.0569 216.867 18.3369 217.827C19.6169 218.787 21.1902 219.267 23.0569 219.267C24.7635 219.267 26.0702 218.947 26.9769 218.307C27.9369 217.614 28.4169 216.734 28.4169 215.667C28.4169 214.387 27.7502 213.454 26.4169 212.867C25.0835 212.227 22.9235 211.534 19.9369 210.787C16.7369 210.041 14.0702 209.267 11.9369 208.467C9.80354 207.614 7.96354 206.307 6.41688 204.547C4.87021 202.734 4.09688 200.307 4.09688 197.267C4.09688 194.707 4.79021 192.387 6.17688 190.307C7.61688 188.174 9.69688 186.494 12.4169 185.267C15.1902 184.041 18.4702 183.427 22.2569 183.427C27.8569 183.427 32.2569 184.814 35.4569 187.587C38.7102 190.361 40.5769 194.041 41.0569 198.627H28.4169C28.2035 197.081 27.5102 195.854 26.3369 194.947C25.2169 194.041 23.7235 193.587 21.8569 193.587C20.2569 193.587 19.0302 193.907 18.1769 194.547C17.3235 195.134 16.8969 195.961 16.8969 197.027C16.8969 198.307 17.5635 199.267 18.8969 199.907C20.2835 200.547 22.4169 201.187 25.2969 201.827C28.6035 202.681 31.2969 203.534 33.3769 204.387C35.4569 205.187 37.2702 206.521 38.8169 208.387C40.4169 210.201 41.2435 212.654 41.2969 215.747C41.2969 218.361 40.5502 220.707 39.0569 222.787C37.6169 224.814 35.5102 226.414 32.7369 227.587C30.0169 228.761 26.8435 229.347 23.2169 229.347ZM60.1463 190.387C61.4796 188.307 63.3196 186.627 65.6663 185.347C68.0129 184.067 70.7596 183.427 73.9063 183.427C77.5863 183.427 80.9196 184.361 83.9063 186.227C86.8929 188.094 89.2396 190.761 90.9463 194.227C92.7063 197.694 93.5863 201.721 93.5863 206.307C93.5863 210.894 92.7063 214.947 90.9463 218.467C89.2396 221.934 86.8929 224.627 83.9063 226.547C80.9196 228.414 77.5863 229.347 73.9063 229.347C70.8129 229.347 68.0663 228.707 65.6663 227.427C63.3196 226.147 61.4796 224.494 60.1463 222.467V249.987H46.4663V184.067H60.1463V190.387ZM79.6663 206.307C79.6663 202.894 78.7063 200.227 76.7863 198.307C74.9196 196.334 72.5996 195.347 69.8263 195.347C67.1063 195.347 64.7863 196.334 62.8663 198.307C60.9996 200.281 60.0663 202.974 60.0663 206.387C60.0663 209.801 60.9996 212.494 62.8663 214.467C64.7863 216.441 67.1063 217.427 69.8263 217.427C72.5463 217.427 74.8663 216.441 76.7863 214.467C78.7063 212.441 79.6663 209.721 79.6663 206.307ZM104.443 179.427C102.043 179.427 100.07 178.734 98.5231 177.347C97.0298 175.907 96.2831 174.147 96.2831 172.067C96.2831 169.934 97.0298 168.174 98.5231 166.787C100.07 165.347 102.043 164.627 104.443 164.627C106.79 164.627 108.71 165.347 110.203 166.787C111.75 168.174 112.523 169.934 112.523 172.067C112.523 174.147 111.75 175.907 110.203 177.347C108.71 178.734 106.79 179.427 104.443 179.427ZM111.243 184.067V228.707H97.5631V184.067H111.243ZM145.157 183.587C150.384 183.587 154.544 185.294 157.637 188.707C160.784 192.067 162.357 196.707 162.357 202.627V228.707H148.757V204.467C148.757 201.481 147.984 199.161 146.437 197.507C144.89 195.854 142.81 195.027 140.197 195.027C137.584 195.027 135.504 195.854 133.957 197.507C132.41 199.161 131.637 201.481 131.637 204.467V228.707H117.957V184.067H131.637V189.987C133.024 188.014 134.89 186.467 137.237 185.347C139.584 184.174 142.224 183.587 145.157 183.587Z" fill="#2E1340"/>
</svg>
