<svg width="24" height="24" viewBox="0 0 24 24" fill="none" xmlns="http://www.w3.org/2000/svg">
<mask id="mask0_1185_587" style="mask-type:alpha" maskUnits="userSpaceOnUse" x="0" y="0" width="24" height="24">
<rect width="24" height="24" fill="#D9D9D9"/>
</mask>
<g mask="url(#mask0_1185_587)">
<path d="M7.39994 12.575L12.2999 17.475C12.4999 17.675 12.5958 17.9083 12.5874 18.175C12.5791 18.4417 12.4749 18.675 12.2749 18.875C12.0749 19.0583 11.8416 19.1542 11.5749 19.1625C11.3083 19.1708 11.0749 19.075 10.8749 18.875L4.27494 12.275C4.17494 12.175 4.10411 12.0667 4.06244 11.95C4.02077 11.8333 3.99994 11.7083 3.99994 11.575C3.99994 11.4417 4.02077 11.3167 4.06244 11.2C4.10411 11.0833 4.17494 10.975 4.27494 10.875L10.8749 4.275C11.0583 4.09167 11.2874 4 11.5624 4C11.8374 4 12.0749 4.09167 12.2749 4.275C12.4749 4.475 12.5749 4.7125 12.5749 4.9875C12.5749 5.2625 12.4749 5.5 12.2749 5.7L7.39994 10.575H18.5749C18.8583 10.575 19.0958 10.6708 19.2874 10.8625C19.4791 11.0542 19.5749 11.2917 19.5749 11.575C19.5749 11.8583 19.4791 12.0958 19.2874 12.2875C19.0958 12.4792 18.8583 12.575 18.5749 12.575H7.39994Z" fill="#7F5E95"/>
</g>
</svg>
